<?xml version="1.0" encoding="utf-8"?>
<!-- Generator: Adobe Illustrator 27.5.0, SVG Export Plug-In . SVG Version: 6.00 Build 0)  -->
<svg version="1.1" xmlns="http://www.w3.org/2000/svg" xmlns:xlink="http://www.w3.org/1999/xlink" x="0px" y="0px"
	 viewBox="70 300 170 100" style="enable-background:new 0 0 500 500;" xml:space="preserve" >
<g id="OBJECTS"   >
	
	<g  >
		<g >
			<path style="fill:none;stroke:#000000;stroke-width:6;stroke-linecap:round;stroke-miterlimit:10;" d="M132.772,367.867
				c-1.667-4.478-2.512-9.187-2.512-13.995c0-22.174,18.04-40.214,40.214-40.214s40.214,18.04,40.214,40.214
				s-18.04,40.214-40.214,40.214c-8.564,0-16.763-2.706-23.549-7.624"/>
			<path style="fill:none;stroke:#000000;stroke-width:6;stroke-linecap:round;stroke-miterlimit:10;" d="M141.676,353.872
				c0-15.905,12.893-28.798,28.798-28.798c15.905,0,28.798,12.893,28.798,28.798c0,15.905-12.893,28.798-28.798,28.798
				c-5.511,0-10.661-1.548-15.038-4.233"/>
			<path style="fill:none;stroke:#000000;stroke-width:6;stroke-linecap:round;stroke-miterlimit:10;" d="M161.117,368.52
				c2.769,1.782,5.987,2.735,9.357,2.735c9.585,0,17.383-7.798,17.383-17.383s-7.798-17.383-17.383-17.383
				s-17.383,7.798-17.383,17.383"/>
			<path style="fill:none;stroke:#000000;stroke-width:6;stroke-linecap:round;stroke-miterlimit:10;" d="M161.096,368.51
				c6.514,4.172,15.282,3.601,21.207-1.901c7.023-6.522,7.431-17.543,0.909-24.566s-17.543-7.431-24.566-0.909"/>
		</g>
		<g >
			<path style="fill:none;stroke:#000000;stroke-width:6;stroke-linecap:round;stroke-miterlimit:10;" d="M146.996,386.39
				c-6.462,4.549-14.335,7.222-22.821,7.222c-21.913,0-39.74-17.827-39.74-39.74c0-21.913,17.827-39.74,39.74-39.74
				c8.281,0,16.215,2.56,22.834,7.222"/>
			<path style="fill:none;stroke:#000000;stroke-width:6;stroke-linecap:round;stroke-miterlimit:10;" d="M161.133,368.533
				c-2.812,7.072-7.642,13.346-14.124,17.872"/>
			<path style="fill:none;stroke:#000000;stroke-width:6;stroke-linecap:round;stroke-miterlimit:10;" d="M161.134,339.161
				c3.898,9.753,3.635,20.229,0,29.372"/>
			<path style="fill:none;stroke:#000000;stroke-width:6;stroke-linecap:round;stroke-miterlimit:10;" d="M153.074,353.872
				c0,15.905-12.894,28.798-28.798,28.798c-15.905,0-28.799-12.893-28.799-28.798c0-15.905,12.894-28.799,28.799-28.799
				c5.324,0,10.311,1.445,14.59,3.964"/>
			<path style="fill:none;stroke:#000000;stroke-width:6;stroke-linecap:round;stroke-miterlimit:10;" d="M133.143,338.921
				c-2.656-1.586-5.694-2.431-8.867-2.431c-9.585,0-17.383,7.798-17.383,17.383c0,9.585,7.798,17.383,17.383,17.383
				s17.383-7.798,17.383-17.383"/>
		</g>
	</g>
	
	
</g>
</svg>
